<?xml version="1.0"?><svg fill="#1A1A1A" xmlns="http://www.w3.org/2000/svg"  viewBox="0 0 24 24" width="24px" height="24px">    <path d="M 4 3 C 2.9 3 2.0097656 3.9 2.0097656 5 L 2.0019531 16.998047 C 2.0019531 18.103047 2.8969531 19 4.0019531 19 L 6 19 L 6 23 L 10 19 L 20 19 C 21.1 19 22 18.1 22 17 L 22 5 C 22 3.9 21.1 3 20 3 L 4 3 z M 4 5 L 20 5 L 20 17 L 6 17 L 4.0019531 17 L 4 5 z M 9.4140625 7 L 8 8.4140625 L 10.585938 11 L 8 13.585938 L 9.4140625 15 L 12 12.414062 L 14.585938 15 L 16 13.585938 L 13.414062 11 L 16 8.4140625 L 14.585938 7 L 12 9.5859375 L 9.4140625 7 z"/></svg>